<svg width="151" height="80" viewBox="0 0 151 80" fill="none" xmlns="http://www.w3.org/2000/svg">
<path d="M0.640625 39.2578C0.640625 31.7109 2.09375 24.9844 5 19.0781C7.90625 13.1719 12.0781 8.60156 17.5156 5.36719C23 2.13281 29.3516 0.515625 36.5703 0.515625C46.8359 0.515625 55.2031 3.65625 61.6719 9.9375C68.1875 16.2188 71.8203 24.75 72.5703 35.5312L72.7109 40.7344C72.7109 52.4062 69.4531 61.7812 62.9375 68.8594C56.4219 75.8906 47.6797 79.4062 36.7109 79.4062C25.7422 79.4062 16.9766 75.8906 10.4141 68.8594C3.89844 61.8281 0.640625 52.2656 0.640625 40.1719V39.2578ZM20.9609 40.7344C20.9609 47.9531 22.3203 53.4844 25.0391 57.3281C27.7578 61.125 31.6484 63.0234 36.7109 63.0234C41.6328 63.0234 45.4766 61.1484 48.2422 57.3984C51.0078 53.6016 52.3906 47.5547 52.3906 39.2578C52.3906 32.1797 51.0078 26.6953 48.2422 22.8047C45.4766 18.9141 41.5859 16.9688 36.5703 16.9688C31.6016 16.9688 27.7578 18.9141 25.0391 22.8047C22.3203 26.6484 20.9609 32.625 20.9609 40.7344ZM103.93 1.92188L104.562 10.7109C110 3.91406 117.289 0.515625 126.43 0.515625C134.492 0.515625 140.492 2.88281 144.43 7.61719C148.367 12.3516 150.383 19.4297 150.477 28.8516V78H130.156V29.3438C130.156 25.0312 129.219 21.9141 127.344 19.9922C125.469 18.0234 122.352 17.0391 117.992 17.0391C112.273 17.0391 107.984 19.4766 105.125 24.3516V78H84.8047V1.92188H103.93Z" fill="url(#paint0_linear_1_3)"/>
<defs>
<linearGradient id="paint0_linear_1_3" x1="113" y1="-56" x2="113" y2="152" gradientUnits="userSpaceOnUse">
<stop stop-color="#0659FA"/>
<stop offset="0.489583" stop-color="#F9855B"/>
</linearGradient>
</defs>
</svg>
