<svg width="326" height="159" viewBox="0 0 326 159" fill="none" xmlns="http://www.w3.org/2000/svg">
<path d="M77.0625 0.59375C101.906 0.59375 120.938 7.39062 134.156 20.9844C147.375 34.4844 153.984 53.8906 153.984 79.2031C153.984 104.516 147.375 124.016 134.156 137.703C120.938 151.391 101.906 158.234 77.0625 158.234C52.5 158.234 33.5625 151.438 20.25 137.844C6.9375 124.156 0.28125 104.609 0.28125 79.2031C0.28125 53.8906 6.89062 34.4844 20.1094 20.9844C33.3281 7.39062 52.3125 0.59375 77.0625 0.59375ZM77.0625 32.9375C54.8438 32.8438 43.7344 48.2656 43.7344 79.2031C43.7344 110.141 54.8438 125.609 77.0625 125.609C99.375 125.609 110.531 110.141 110.531 79.2031C110.531 48.2656 99.375 32.8438 77.0625 32.9375ZM224.156 25.0625C237.469 9.5 254.953 1.71875 276.609 1.71875C292.359 1.71875 304.5 6.35938 313.031 15.6406C321.562 24.8281 325.828 37.8594 325.828 54.7344V155H282.656V57.125C282.656 48.3125 280.922 41.9375 277.453 38C273.984 34.0625 268.406 32.0938 260.719 32.0938C253.781 32.0938 247.312 33.6875 241.312 36.875C235.312 39.9688 230.484 44.1875 226.828 49.5312V155H183.516V4.10938H219.516L224.156 25.0625Z" fill="#F9855B"/>
</svg>
